<svg xmlns="http://www.w3.org/2000/svg" xmlns:xlink="http://www.w3.org/1999/xlink" width="500" zoomAndPan="magnify" viewBox="0 0 375 374.999991" height="500" preserveAspectRatio="xMidYMid meet" version="1.0"><defs><g/><clipPath id="c2c24ebd35"><path d="M 21.796875 181 L 353.296875 181 L 353.296875 374 L 21.796875 374 Z M 21.796875 181 " clip-rule="nonzero"/></clipPath></defs><path fill="#80cc28" d="M 273.605469 51.304688 C 273.605469 56.800781 269.148438 61.253906 263.648438 61.253906 C 258.148438 61.253906 253.691406 56.800781 253.691406 51.304688 C 253.691406 45.804688 258.148438 41.351562 263.648438 41.351562 C 269.148438 41.351562 273.605469 45.804688 273.605469 51.304688 " fill-opacity="1" fill-rule="nonzero"/><path fill="#80cc28" d="M 239.507812 24.699219 C 239.507812 30.199219 235.050781 34.652344 229.550781 34.652344 C 224.050781 34.652344 219.59375 30.199219 219.59375 24.699219 C 219.59375 19.203125 224.050781 14.746094 229.550781 14.746094 C 235.050781 14.746094 239.507812 19.203125 239.507812 24.699219 " fill-opacity="1" fill-rule="nonzero"/><path fill="#80cc28" d="M 245.40625 183.84375 C 245.40625 189.34375 240.949219 193.800781 235.449219 193.800781 C 229.949219 193.800781 225.492188 189.34375 225.492188 183.84375 C 225.492188 178.347656 229.949219 173.894531 235.449219 173.894531 C 240.949219 173.894531 245.40625 178.347656 245.40625 183.84375 " fill-opacity="1" fill-rule="nonzero"/><path fill="#80cc28" d="M 225.742188 140.335938 C 225.742188 145.125 221.859375 149.007812 217.066406 149.007812 C 212.273438 149.007812 208.390625 145.125 208.390625 140.335938 C 208.390625 135.546875 212.273438 131.660156 217.066406 131.660156 C 221.859375 131.660156 225.742188 135.546875 225.742188 140.335938 " fill-opacity="1" fill-rule="nonzero"/><path fill="#80cc28" d="M 191.34375 196.746094 C 191.34375 201.535156 187.460938 205.421875 182.667969 205.421875 C 177.875 205.421875 173.992188 201.535156 173.992188 196.746094 C 173.992188 191.957031 177.875 188.074219 182.667969 188.074219 C 187.460938 188.074219 191.34375 191.957031 191.34375 196.746094 " fill-opacity="1" fill-rule="nonzero"/><path fill="#80cc28" d="M 300.496094 14.742188 C 300.496094 22.894531 293.886719 29.5 285.738281 29.5 C 277.582031 29.5 270.976562 22.894531 270.976562 14.742188 C 270.976562 6.59375 277.582031 -0.0117188 285.738281 -0.0117188 C 293.886719 -0.0117188 300.496094 6.59375 300.496094 14.742188 " fill-opacity="1" fill-rule="nonzero"/><path fill="#80cc28" d="M 225.742188 230.882812 C 225.742188 239.035156 219.132812 245.644531 210.980469 245.644531 C 202.828125 245.644531 196.21875 239.035156 196.21875 230.882812 C 196.21875 222.734375 202.828125 216.125 210.980469 216.125 C 219.132812 216.125 225.742188 222.734375 225.742188 230.882812 " fill-opacity="1" fill-rule="nonzero"/><path fill="#51ade5" d="M 101.171875 175.210938 C 123.707031 144.917969 160.273438 127.300781 198.558594 129.167969 L 209.570312 90.960938 L 207.230469 90.285156 C 201.84375 88.734375 198.738281 83.113281 200.289062 77.726562 C 201.839844 72.34375 207.464844 69.238281 212.847656 70.785156 L 268.238281 86.742188 C 273.625 88.289062 276.734375 93.914062 275.183594 99.296875 C 273.628906 104.683594 268.003906 107.789062 262.621094 106.238281 L 260.28125 105.5625 L 249.265625 143.773438 C 273.957031 157.652344 292.1875 180.035156 301.222656 205.960938 C 307.230469 206.394531 313.117188 207.414062 318.679688 208.761719 C 317.234375 203.5625 315.460938 198.441406 313.367188 193.421875 C 303.835938 170.582031 287.875 150.832031 267.773438 136.742188 L 272.144531 121.574219 C 280.644531 119.289062 287.785156 112.738281 290.394531 103.679688 C 294.359375 89.917969 286.386719 75.496094 272.621094 71.53125 L 217.230469 55.578125 C 203.464844 51.613281 189.042969 59.585938 185.074219 73.347656 C 182.464844 82.402344 185.027344 91.746094 191.007812 98.207031 L 186.636719 113.371094 C 162.113281 114.613281 138.085938 122.84375 117.863281 137.109375 C 106.019531 145.46875 95.734375 155.644531 87.292969 167.363281 C 85.351562 170.058594 83.523438 172.828125 81.800781 175.652344 C 85.949219 175.234375 90.171875 174.996094 94.417969 174.996094 C 96.707031 174.996094 98.957031 175.078125 101.171875 175.210938 " fill-opacity="1" fill-rule="nonzero"/><g clip-path="url(#c2c24ebd35)"><path fill="#80cc28" d="M 302.269531 277.863281 C 296.382812 296.605469 286.078125 312.800781 272.835938 325.628906 C 251.925781 345.898438 216.777344 330.695312 217.257812 301.578125 C 217.265625 301.152344 217.28125 300.835938 217.304688 300.625 C 220.050781 277.382812 231.59375 263.59375 244.148438 256.9375 C 277.8125 239.097656 312.8125 240.195312 312.8125 240.195312 C 312.8125 240.195312 268.03125 252.933594 242.039062 268.789062 C 267.039062 269.941406 281.027344 294.222656 316.820312 256.882812 C 329.667969 243.480469 353.203125 229.941406 353.203125 229.941406 C 353.203125 229.941406 277.644531 184.609375 246.652344 240.648438 C 242.84375 247.527344 237.269531 253.226562 230.664062 257.496094 C 220.804688 263.871094 213.871094 273.035156 208.886719 284.265625 C 203.085938 268.164062 194.371094 254.847656 181.222656 245.363281 C 172.824219 239.300781 165.871094 231.429688 161.332031 222.125 C 124.339844 146.347656 21.921875 200.886719 21.921875 200.886719 C 21.921875 200.886719 51.960938 220.273438 67.957031 238.765625 C 112.515625 290.28125 132.546875 259.28125 165.503906 259.445312 C 132.386719 236.847656 74.351562 217.085938 74.351562 217.085938 C 74.351562 217.085938 120.449219 217.996094 163.527344 243.722656 C 179.59375 253.316406 193.839844 272.226562 195.886719 302.980469 C 195.902344 303.167969 195.914062 303.359375 195.925781 303.550781 C 198.042969 336.40625 162.101562 357.820312 134.0625 340.554688 C 113.542969 327.921875 98.726562 310.492188 91.074219 295.492188 C 85.472656 284.511719 81.628906 272.628906 79.792969 260.285156 C 74.257812 255.714844 68.605469 250.066406 62.71875 243.257812 C 62.710938 248.503906 63.015625 253.761719 63.648438 259.015625 C 65.660156 275.742188 70.828125 291.726562 79.011719 306.53125 C 87.195312 321.332031 97.984375 334.214844 111.082031 344.8125 C 124.644531 355.796875 140.089844 363.832031 156.992188 368.695312 C 173.886719 373.566406 191.242188 374.980469 208.574219 372.894531 C 225.304688 370.882812 241.296875 365.71875 256.105469 357.535156 C 270.910156 349.351562 283.792969 338.566406 294.398438 325.476562 C 305.382812 311.914062 313.421875 296.472656 318.289062 279.578125 C 320.027344 273.539062 321.324219 267.425781 322.179688 261.269531 L 322.171875 261.269531 C 315.238281 268.554688 308.667969 274.046875 302.269531 277.863281 " fill-opacity="1" fill-rule="nonzero"/></g><g fill="#80cc28" fill-opacity="1"><g transform="translate(61.713677, 208.549981)"><g><path d="M 1.125 0 L 1.125 -1.53125 L 5.40625 -1.53125 L 5.40625 -13.53125 L 5.15625 -13.59375 C 4.457031 -13.25 3.847656 -12.984375 3.328125 -12.796875 C 2.804688 -12.617188 2.140625 -12.445312 1.328125 -12.28125 L 1.328125 -13.96875 C 2.128906 -14.144531 2.925781 -14.378906 3.71875 -14.671875 C 4.507812 -14.960938 5.226562 -15.304688 5.875 -15.703125 L 7.203125 -15.703125 L 7.203125 -1.53125 L 11.046875 -1.53125 L 11.046875 0 Z M 1.125 0 "/></g></g></g></svg>