<?xml version="1.0" standalone="no"?>
<!DOCTYPE svg PUBLIC "-//W3C//DTD SVG 20010904//EN"
 "http://www.w3.org/TR/2001/REC-SVG-20010904/DTD/svg10.dtd">
<svg version="1.0" xmlns="http://www.w3.org/2000/svg"
 width="3512.000000pt" height="2484.000000pt" viewBox="0 0 3512.000000 2484.000000"
 preserveAspectRatio="xMidYMid meet">

<g transform="translate(0.000000,2484.000000) scale(0.100000,-0.100000)"
fill="#000000" stroke="none">
<path d="M0 12420 l0 -12420 17560 0 17560 0 0 12420 0 12420 -17560 0 -17560
0 0 -12420z m35080 0 l0 -12380 -17520 0 -17520 0 0 12380 0 12380 17520 0
17520 0 0 -12380z"/>
<path d="M18061 15598 c-27 -51 -48 -94 -47 -96 2 -2 19 1 37 7 26 7 28 9 12
10 -13 1 -23 4 -23 9 0 4 18 42 40 85 22 42 38 77 35 77 -2 0 -27 -41 -54 -92z"/>
<path d="M8308 15660 c-954 -75 -1784 -560 -2318 -1355 -270 -402 -440 -883
-490 -1380 -14 -141 -14 -448 0 -590 65 -658 343 -1279 790 -1759 506 -546
1150 -874 1885 -962 157 -19 506 -22 655 -5 607 68 1147 292 1610 670 343 280
602 606 800 1006 130 263 207 486 260 755 43 222 55 344 55 590 0 229 -10 349
-46 545 -171 941 -785 1753 -1643 2175 -331 163 -624 251 -977 295 -152 19
-441 26 -581 15z m562 -166 c1229 -146 2230 -1068 2479 -2285 42 -205 55 -336
55 -579 0 -252 -13 -381 -60 -602 -189 -895 -802 -1654 -1644 -2033 -134 -61
-392 -146 -540 -179 -936 -206 -1889 48 -2592 691 -378 346 -677 827 -816
1313 -82 288 -112 506 -112 819 0 470 100 888 313 1304 358 702 981 1222 1742
1452 206 62 439 102 695 119 95 6 350 -4 480 -20z"/>
<path d="M8277 15400 c-773 -75 -1453 -442 -1936 -1045 -202 -253 -393 -622
-486 -941 -37 -127 -71 -290 -91 -434 -21 -155 -24 -498 -5 -655 88 -743 447
-1395 1025 -1865 289 -234 702 -437 1077 -529 1337 -327 2714 375 3234 1648
85 208 146 437 182 676 25 170 25 582 0 750 -92 622 -361 1162 -791 1591 -428
426 -960 694 -1561 784 -158 24 -500 34 -648 20z m547 -36 c249 -28 477 -85
706 -175 153 -61 356 -163 353 -178 -2 -5 3 -8 10 -5 16 6 238 -140 341 -224
113 -91 268 -240 353 -337 115 -131 205 -253 197 -267 -4 -6 -3 -8 2 -5 20 12
188 -279 264 -458 34 -80 110 -288 110 -302 0 -2 -1188 -3 -2639 -3 l-2639 0
21 64 c11 36 24 63 29 60 4 -3 5 2 2 10 -8 20 106 287 119 279 6 -3 7 -1 3 5
-15 24 150 299 289 482 95 125 353 393 372 386 8 -3 11 -2 8 3 -3 5 27 36 67
69 401 327 893 534 1413 596 165 19 447 19 619 0z m707 -2137 c19 -12 35 -32
37 -44 8 -53 -73 -115 -172 -134 -98 -18 -203 27 -242 102 -18 36 -14 44 36
69 49 25 67 25 79 1 14 -25 67 -43 108 -35 18 3 45 19 60 34 35 34 51 36 94 7z
m-2533 -22 c71 -32 159 -119 169 -166 l6 -29 661 0 c502 0 665 -3 674 -12 7
-7 12 -33 12 -58 0 -49 -13 -70 -42 -70 -17 0 -18 -17 -18 -283 0 -207 -3
-286 -12 -295 -16 -16 -120 -16 -136 0 -8 8 -12 56 -12 150 l0 138 -84 0 c-84
0 -84 0 -94 -29 -29 -83 -129 -109 -190 -50 -54 53 -55 123 -3 182 l29 32 171
3 171 3 0 75 0 74 -230 0 -230 0 0 -279 c0 -319 2 -311 -80 -311 -75 0 -80 4
-80 67 0 55 0 55 -27 49 -126 -31 -214 -25 -283 19 -70 44 -114 127 -108 205
3 42 4 43 53 55 27 7 57 23 67 35 25 30 23 80 -5 121 -22 34 -24 34 -105 37
l-82 3 0 -76 c0 -116 2 -115 -143 -115 -131 0 -162 -9 -155 -46 3 -17 15 -20
98 -26 129 -10 176 -24 220 -68 91 -91 67 -241 -46 -295 -92 -43 -258 -38
-360 12 -73 35 -81 52 -52 104 29 52 56 58 126 29 74 -31 144 -37 177 -16 14
9 25 23 25 31 0 30 -32 43 -149 60 -109 16 -123 21 -152 49 -39 38 -49 64 -49
129 0 63 31 123 77 149 23 14 55 19 122 21 l91 2 0 28 0 27 -180 0 -180 0 0
-279 c0 -322 3 -311 -85 -311 -88 0 -85 -11 -85 311 l0 279 -45 0 -45 0 0 -83
c0 -51 -5 -88 -12 -95 -8 -8 -58 -12 -158 -12 -155 0 -170 -4 -170 -47 0 -28
14 -32 150 -35 124 -4 154 -18 190 -95 32 -69 25 -176 -15 -228 -35 -47 -78
-73 -132 -81 -24 -3 -43 -10 -43 -14 0 -5 11 -22 25 -38 32 -38 31 -57 -1
-104 -44 -63 -56 -57 -156 74 -38 52 -59 70 -87 78 -65 18 -101 63 -101 125 1
44 15 69 57 97 49 31 113 19 158 -32 46 -52 119 -58 144 -11 30 56 10 70 -120
87 -63 7 -126 19 -141 25 -15 6 -41 32 -58 57 -49 74 -38 176 25 235 32 29
114 47 218 47 65 0 67 1 67 25 l0 25 -156 0 c-88 0 -164 4 -175 10 -15 8 -19
21 -19 58 0 27 5 53 12 60 9 9 92 12 313 12 l300 0 24 45 c41 78 125 148 211
176 14 5 61 7 105 6 62 -3 94 -10 143 -32z m-635 13 c32 -17 46 -39 47 -74 0
-43 -42 -84 -85 -84 -22 0 -41 9 -59 26 -35 36 -34 77 3 115 31 31 59 36 94
17z m2508 -190 c44 -13 101 -63 125 -109 22 -43 29 -120 14 -163 -6 -20 -27
-57 -45 -81 l-34 -44 29 -37 c53 -66 64 -148 29 -224 -42 -93 -106 -133 -214
-133 -107 0 -188 51 -235 149 -28 56 -19 87 30 109 42 19 74 10 85 -25 10 -31
63 -70 96 -70 42 0 65 15 77 49 21 60 -11 115 -78 136 -44 13 -60 35 -60 80 0
50 13 65 58 65 48 0 97 49 87 88 -14 61 -62 67 -128 17 l-46 -35 -41 16 c-68
27 -77 65 -30 124 68 86 177 120 281 88z m2277 -82 c4 -69 -2 -76 -70 -76
l-48 0 0 -279 c0 -321 3 -311 -83 -311 -29 0 -57 4 -64 8 -9 5 -13 50 -15 144
l-3 136 -115 -69 c-63 -38 -124 -69 -135 -69 -22 0 -85 83 -85 113 0 9 18 29
40 43 22 15 40 30 40 35 0 13 -40 21 -74 15 -50 -10 -79 -46 -84 -109 -4 -49
-1 -57 28 -90 17 -20 40 -39 51 -42 33 -11 40 -38 23 -88 -8 -25 -22 -51 -30
-58 -38 -31 -178 69 -225 161 -32 63 -32 166 -1 235 72 158 246 205 405 110
32 -19 66 -35 75 -35 10 0 34 11 55 25 34 24 37 29 37 75 l0 50 -330 0 -330 0
0 -279 c0 -322 3 -311 -85 -311 -68 0 -85 16 -85 77 0 42 -2 45 -22 39 -112
-32 -208 -25 -278 19 -72 46 -115 128 -108 209 3 37 5 39 50 51 26 6 54 17 62
24 22 19 30 76 16 112 -20 47 -46 59 -127 59 l-73 0 0 -279 c0 -322 3 -311
-85 -311 -88 0 -85 -11 -85 311 l0 279 -45 0 -45 0 0 -289 c0 -325 6 -301 -80
-301 -76 0 -80 8 -80 165 l0 134 -62 3 -63 3 0 60 0 60 63 3 62 3 0 79 0 80
-43 0 c-24 0 -48 5 -55 12 -16 16 -16 115 1 121 6 3 482 5 1057 4 l1045 -2 3
-59z m22 -1064 c0 -4 -18 -59 -39 -122 -169 -496 -456 -912 -866 -1257 -119
-99 -200 -151 -231 -147 -27 3 -27 3 -4 -4 23 -7 15 -14 -85 -74 -345 -207
-692 -327 -1095 -379 -133 -18 -532 -18 -660 -1 -651 87 -1212 370 -1660 839
-68 71 -119 132 -116 140 3 7 0 12 -6 10 -6 -1 -44 41 -85 93 -175 228 -342
552 -426 828 l-25 82 2649 0 c1457 0 2649 -4 2649 -8z"/>
<path d="M8243 15343 c15 -2 37 -2 50 0 12 2 0 4 -28 4 -27 0 -38 -2 -22 -4z"/>
<path d="M8738 15343 c18 -2 45 -2 60 0 15 2 0 4 -33 4 -33 0 -45 -2 -27 -4z"/>
<path d="M8078 15323 c12 -2 32 -2 45 0 12 2 2 4 -23 4 -25 0 -35 -2 -22 -4z"/>
<path d="M8180 15326 c0 -2 7 -7 16 -10 8 -3 12 -2 9 4 -6 10 -25 14 -25 6z"/>
<path d="M8913 15323 c15 -2 37 -2 50 0 12 2 0 4 -28 4 -27 0 -38 -2 -22 -4z"/>
<path d="M7988 15303 c6 -2 18 -2 25 0 6 3 1 5 -13 5 -14 0 -19 -2 -12 -5z"/>
<path d="M8248 15303 c12 -2 32 -2 45 0 12 2 2 4 -23 4 -25 0 -35 -2 -22 -4z"/>
<path d="M8748 15303 c12 -2 32 -2 45 0 12 2 2 4 -23 4 -25 0 -35 -2 -22 -4z"/>
<path d="M9048 15303 c7 -3 16 -2 19 1 4 3 -2 6 -13 5 -11 0 -14 -3 -6 -6z"/>
<path d="M8095 15290 l-30 -8 27 -1 c15 0 30 4 33 9 3 6 5 9 3 9 -2 -1 -16 -5
-33 -9z"/>
<path d="M7878 15283 c6 -2 18 -2 25 0 6 3 1 5 -13 5 -14 0 -19 -2 -12 -5z"/>
<path d="M9138 15283 c7 -3 16 -2 19 1 4 3 -2 6 -13 5 -11 0 -14 -3 -6 -6z"/>
<path d="M9058 15273 c6 -2 9 -10 6 -15 -4 -7 -2 -8 4 -4 18 11 14 26 -5 25
-11 0 -13 -3 -5 -6z"/>
<path d="M7816 15259 c2 -4 13 -7 24 -6 10 1 17 4 14 8 -2 4 -13 7 -24 6 -10
-1 -17 -4 -14 -8z"/>
<path d="M9214 15263 c10 -10 46 -11 40 -1 -3 4 -15 8 -26 8 -12 0 -18 -3 -14
-7z"/>
<path d="M8140 15250 c0 -5 5 -10 10 -10 6 0 10 5 10 10 0 6 -4 10 -10 10 -5
0 -10 -4 -10 -10z"/>
<path d="M9286 15243 c5 -5 12 -12 15 -16 3 -5 9 -2 12 7 5 12 0 16 -15 16
-12 0 -17 -3 -12 -7z"/>
<path d="M7605 15200 c3 -5 10 -10 16 -10 5 0 9 5 9 10 0 6 -7 10 -16 10 -8 0
-12 -4 -9 -10z"/>
<path d="M9410 15200 c0 -5 4 -10 9 -10 6 0 13 5 16 10 3 6 -1 10 -9 10 -9 0
-16 -4 -16 -10z"/>
<path d="M7558 15183 c6 -2 18 -2 25 0 6 3 1 5 -13 5 -14 0 -19 -2 -12 -5z"/>
<path d="M7505 15170 c3 -5 8 -10 11 -10 2 0 4 5 4 10 0 6 -5 10 -11 10 -5 0
-7 -4 -4 -10z"/>
<path d="M9415 15170 c-3 -5 1 -10 10 -10 9 0 13 5 10 10 -3 6 -8 10 -10 10
-2 0 -7 -4 -10 -10z"/>
<path d="M7608 15163 c7 -3 16 -2 19 1 4 3 -2 6 -13 5 -11 0 -14 -3 -6 -6z"/>
<path d="M7458 15143 c7 -3 16 -2 19 1 4 3 -2 6 -13 5 -11 0 -14 -3 -6 -6z"/>
<path d="M7526 15137 c-16 -12 -16 -14 -3 -14 9 0 18 6 21 14 3 7 4 13 3 13
-2 0 -11 -6 -21 -13z"/>
<path d="M9510 15130 c0 -5 4 -10 9 -10 6 0 13 5 16 10 3 6 -1 10 -9 10 -9 0
-16 -4 -16 -10z"/>
<path d="M9280 15110 c0 -5 5 -10 10 -10 6 0 10 5 10 10 0 6 -4 10 -10 10 -5
0 -10 -4 -10 -10z"/>
<path d="M9394 15095 c8 -8 18 -15 22 -15 3 0 1 7 -6 15 -7 8 -17 15 -22 15
-5 0 -3 -7 6 -15z"/>
<path d="M9530 15090 c19 -13 30 -13 30 0 0 6 -10 10 -22 10 -19 0 -20 -2 -8
-10z"/>
<path d="M7248 15043 c7 -3 16 -2 19 1 4 3 -2 6 -13 5 -11 0 -14 -3 -6 -6z"/>
<path d="M9760 15046 c0 -2 11 -6 25 -8 13 -3 22 -1 19 3 -5 9 -44 13 -44 5z"/>
<path d="M9817 15026 c-4 -10 -1 -13 8 -9 8 3 12 9 9 14 -7 12 -11 11 -17 -5z"/>
<path d="M7200 15020 c0 -5 7 -7 16 -3 13 5 15 1 10 -18 -6 -20 -5 -21 4 -6 6
9 8 22 5 27 -8 13 -35 13 -35 0z"/>
<path d="M9820 14950 c0 -5 5 -10 10 -10 6 0 10 5 10 10 0 6 -4 10 -10 10 -5
0 -10 -4 -10 -10z"/>
<path d="M9954 14952 c3 -5 0 -12 -6 -15 -7 -2 -10 -7 -7 -11 3 -4 12 0 18 8
9 11 9 16 0 22 -7 4 -9 3 -5 -4z"/>
<path d="M7084 14938 c3 -15 26 -23 26 -8 0 6 -4 9 -9 6 -5 -4 -12 -1 -14 4
-3 6 -4 5 -3 -2z"/>
<path d="M7155 14930 c3 -5 11 -10 16 -10 6 0 7 5 4 10 -3 6 -11 10 -16 10 -6
0 -7 -4 -4 -10z"/>
<path d="M7017 14910 c-8 -11 -17 -17 -20 -13 -4 3 -7 1 -7 -5 0 -20 17 -13
34 13 19 30 13 34 -7 5z"/>
<path d="M9992 14896 c7 -8 15 -12 17 -11 5 6 -10 25 -20 25 -5 0 -4 -6 3 -14z"/>
<path d="M10035 14890 c3 -5 8 -10 11 -10 2 0 4 5 4 10 0 6 -5 10 -11 10 -5 0
-7 -4 -4 -10z"/>
<path d="M9940 14870 c0 -5 5 -10 10 -10 6 0 10 5 10 10 0 6 -4 10 -10 10 -5
0 -10 -4 -10 -10z"/>
<path d="M6920 14850 c-13 -8 -12 -10 3 -10 9 0 17 -5 17 -11 0 -6 -7 -9 -14
-6 -10 4 -13 1 -9 -9 7 -19 19 -18 27 2 9 24 -6 45 -24 34z"/>
<path d="M10260 14690 c0 -5 5 -10 10 -10 6 0 10 5 10 10 0 6 -4 10 -10 10 -5
0 -10 -4 -10 -10z"/>
<path d="M6860 14670 c0 -5 5 -10 10 -10 6 0 10 5 10 10 0 6 -4 10 -10 10 -5
0 -10 -4 -10 -10z"/>
<path d="M6669 14643 l-24 -28 28 24 c15 14 27 26 27 28 0 8 -8 1 -31 -24z"/>
<path d="M10355 14650 c10 -11 20 -20 23 -20 3 0 -3 9 -13 20 -10 11 -20 20
-23 20 -3 0 3 -9 13 -20z"/>
<path d="M6785 14610 c-3 -5 -1 -10 4 -10 6 0 11 5 11 10 0 6 -2 10 -4 10 -3
0 -8 -4 -11 -10z"/>
<path d="M6589 14563 c-13 -16 -12 -17 4 -4 16 13 21 21 13 21 -2 0 -10 -8
-17 -17z"/>
<path d="M10435 14560 c4 -6 11 -8 16 -5 14 9 11 15 -7 15 -8 0 -12 -5 -9 -10z"/>
<path d="M6560 14510 c0 -5 5 -10 10 -10 6 0 10 5 10 10 0 6 -4 10 -10 10 -5
0 -10 -4 -10 -10z"/>
<path d="M6514 14488 c-10 -13 -15 -20 -10 -16 5 4 15 0 23 -10 13 -15 13 -15
4 4 -7 15 -7 24 1 32 7 7 10 12 7 12 -3 0 -14 -10 -25 -22z"/>
<path d="M10450 14500 c-9 -6 -10 -10 -3 -10 6 0 15 5 18 10 8 12 4 12 -15 0z"/>
<path d="M6435 14400 c-10 -11 -15 -20 -11 -20 11 0 39 30 34 36 -3 2 -13 -5
-23 -16z"/>
<path d="M6500 14390 c0 -5 5 -10 10 -10 6 0 10 5 10 10 0 6 -4 10 -10 10 -5
0 -10 -4 -10 -10z"/>
<path d="M10591 14381 c-12 -8 -12 -11 1 -25 14 -14 16 -13 14 9 0 14 -1 25
-1 25 0 0 -6 -4 -14 -9z"/>
<path d="M6497 14353 c5 -12 2 -15 -10 -10 -11 4 -14 2 -10 -9 7 -18 11 -18
29 0 18 18 18 22 0 29 -11 4 -13 1 -9 -10z"/>
<path d="M10641 14344 c0 -11 3 -14 6 -6 3 7 2 16 -1 19 -3 4 -6 -2 -5 -13z"/>
<path d="M6440 14330 c0 -5 5 -10 10 -10 6 0 10 5 10 10 0 6 -4 10 -10 10 -5
0 -10 -4 -10 -10z"/>
<path d="M6340 14240 c0 -5 5 -10 11 -10 5 0 7 5 4 10 -3 6 -8 10 -11 10 -2 0
-4 -4 -4 -10z"/>
<path d="M6266 14174 c-4 -9 -4 -19 -1 -22 2 -3 7 3 11 12 4 9 4 19 1 22 -2 3
-7 -3 -11 -12z"/>
<path d="M10736 14155 c4 -8 11 -15 16 -15 6 0 5 6 -2 15 -7 8 -14 15 -16 15
-2 0 -1 -7 2 -15z"/>
<path d="M10740 14100 c0 -5 5 -10 10 -10 6 0 10 5 10 10 0 6 -4 10 -10 10 -5
0 -10 -4 -10 -10z"/>
<path d="M10821 14094 c0 -11 3 -14 6 -6 3 7 2 16 -1 19 -3 4 -6 -2 -5 -13z"/>
<path d="M10843 14051 c1 -14 9 -26 17 -28 10 -3 11 -2 4 4 -7 4 -14 17 -17
28 -5 16 -5 15 -4 -4z"/>
<path d="M10840 13989 c0 -11 21 -11 39 0 9 6 5 9 -13 9 -14 0 -26 -4 -26 -9z"/>
<path d="M6133 13935 c0 -8 4 -12 9 -9 5 3 6 10 3 15 -9 13 -12 11 -12 -6z"/>
<path d="M10940 13879 c0 -5 5 -7 10 -4 6 3 10 8 10 11 0 2 -4 4 -10 4 -5 0
-10 -5 -10 -11z"/>
<path d="M6180 13850 c0 -5 5 -10 10 -10 6 0 10 5 10 10 0 6 -4 10 -10 10 -5
0 -10 -4 -10 -10z"/>
<path d="M10981 13804 c0 -11 3 -14 6 -6 3 7 2 16 -1 19 -3 4 -6 -2 -5 -13z"/>
<path d="M6053 13795 c0 -8 7 -15 15 -15 12 0 12 3 2 15 -7 8 -13 15 -15 15
-1 0 -2 -7 -2 -15z"/>
<path d="M6027 13740 c-3 -12 0 -20 8 -20 8 0 11 8 8 20 -3 11 -7 20 -8 20 -1
0 -5 -9 -8 -20z"/>
<path d="M10880 13710 c0 -5 5 -10 10 -10 6 0 10 5 10 10 0 6 -4 10 -10 10 -5
0 -10 -4 -10 -10z"/>
<path d="M6021 13667 c-1 -10 5 -25 13 -33 21 -20 32 -17 14 4 -9 9 -18 24
-21 32 -4 12 -6 11 -6 -3z"/>
<path d="M5971 13604 c0 -11 3 -14 6 -6 3 7 2 16 -1 19 -3 4 -6 -2 -5 -13z"/>
<path d="M11061 13604 c0 -11 3 -14 6 -6 3 7 2 16 -1 19 -3 4 -6 -2 -5 -13z"/>
<path d="M5952 13550 c0 -14 2 -19 5 -12 2 6 2 18 0 25 -3 6 -5 1 -5 -13z"/>
<path d="M11102 13500 c0 -14 2 -19 5 -12 2 6 2 18 0 25 -3 6 -5 1 -5 -13z"/>
<path d="M11076 13477 c3 -10 9 -15 12 -12 3 3 0 11 -7 18 -10 9 -11 8 -5 -6z"/>
<path d="M5910 13440 c0 -5 5 -10 11 -10 5 0 7 5 4 10 -3 6 -8 10 -11 10 -2 0
-4 -4 -4 -10z"/>
<path d="M11038 13433 c12 -2 32 -2 45 0 12 2 2 4 -23 4 -25 0 -35 -2 -22 -4z"/>
<path d="M11118 13433 c7 -3 16 -2 19 1 4 3 -2 6 -13 5 -11 0 -14 -3 -6 -6z"/>
<path d="M6755 13070 c-22 -11 -46 -29 -53 -40 -12 -20 -10 -20 138 -20 82 0
150 3 150 8 0 14 -16 30 -50 51 -46 28 -130 28 -185 1z"/>
<path d="M7544 12848 c29 -107 19 -154 -45 -219 -49 -48 -50 -51 -34 -70 31
-33 82 -41 131 -20 69 31 78 55 83 203 l3 128 -72 0 c-70 0 -72 -1 -66 -22z"/>
<path d="M9913 12848 c28 -118 21 -153 -45 -218 l-51 -50 22 -24 c45 -47 140
-34 182 26 23 31 25 59 21 206 l-2 82 -66 0 c-64 0 -66 -1 -61 -22z"/>
<path d="M5905 11850 c3 -5 8 -10 11 -10 2 0 4 5 4 10 0 6 -5 10 -11 10 -5 0
-7 -4 -4 -10z"/>
<path d="M11120 11826 c0 -8 4 -17 9 -20 5 -4 7 3 4 14 -6 23 -13 26 -13 6z"/>
<path d="M5952 11710 c0 -14 2 -19 5 -12 2 6 2 18 0 25 -3 6 -5 1 -5 -13z"/>
<path d="M5983 11715 c0 -8 4 -15 9 -15 4 0 8 4 8 9 0 6 -4 12 -8 15 -5 3 -9
-1 -9 -9z"/>
<path d="M5990 11670 c0 -6 7 -10 15 -10 8 0 15 2 15 4 0 2 -7 6 -15 10 -8 3
-15 1 -15 -4z"/>
<path d="M5992 11610 c0 -14 2 -19 5 -12 2 6 2 18 0 25 -3 6 -5 1 -5 -13z"/>
<path d="M6011 11564 c0 -11 3 -14 6 -6 3 7 2 16 -1 19 -3 4 -6 -2 -5 -13z"/>
<path d="M11007 11523 c-4 -3 -7 -11 -7 -17 0 -6 5 -5 12 2 6 6 9 14 7 17 -3
3 -9 2 -12 -2z"/>
<path d="M6050 11470 c0 -5 5 -10 10 -10 6 0 10 5 10 10 0 6 -4 10 -10 10 -5
0 -10 -4 -10 -10z"/>
<path d="M6070 11418 c0 -19 2 -20 10 -8 13 19 13 30 0 30 -5 0 -10 -10 -10
-22z"/>
<path d="M10925 11360 c-3 -5 -1 -10 4 -10 6 0 11 5 11 10 0 6 -2 10 -4 10 -3
0 -8 -4 -11 -10z"/>
<path d="M6145 11350 c3 -5 8 -10 11 -10 2 0 4 5 4 10 0 6 -5 10 -11 10 -5 0
-7 -4 -4 -10z"/>
<path d="M10895 11300 c-3 -5 -1 -10 4 -10 6 0 11 5 11 10 0 6 -2 10 -4 10 -3
0 -8 -4 -11 -10z"/>
<path d="M6146 11277 c3 -10 9 -15 12 -12 3 3 0 11 -7 18 -10 9 -11 8 -5 -6z"/>
<path d="M6200 11229 c-7 -11 -9 -23 -6 -27 3 -3 6 0 6 7 0 8 7 11 15 7 8 -3
15 -1 15 4 0 6 -5 10 -11 10 -5 0 -7 5 -4 10 3 6 4 10 1 10 -3 0 -10 -9 -16
-21z"/>
<path d="M10841 11204 c0 -11 3 -14 6 -6 3 7 2 16 -1 19 -3 4 -6 -2 -5 -13z"/>
<path d="M6360 11050 c0 -5 5 -10 10 -10 6 0 10 5 10 10 0 6 -4 10 -10 10 -5
0 -10 -4 -10 -10z"/>
<path d="M10665 10990 c3 -5 11 -10 16 -10 6 0 7 5 4 10 -3 6 -11 10 -16 10
-6 0 -7 -4 -4 -10z"/>
<path d="M10620 10939 c0 -5 5 -7 10 -4 6 3 10 8 10 11 0 2 -4 4 -10 4 -5 0
-10 -5 -10 -11z"/>
<path d="M10520 10910 c0 -5 9 -10 19 -10 11 0 23 5 26 10 4 6 -5 10 -19 10
-14 0 -26 -4 -26 -10z"/>
<path d="M6465 10878 c9 -15 14 -32 10 -37 -3 -6 0 -8 9 -5 8 3 17 12 20 20 3
9 1 12 -4 9 -6 -4 -20 4 -31 17 l-20 23 16 -27z"/>
<path d="M6430 10874 c0 -8 5 -12 10 -9 6 4 8 11 5 16 -9 14 -15 11 -15 -7z"/>
<path d="M10400 10780 c0 -13 -7 -20 -20 -20 -28 0 -25 -17 4 -22 19 -4 23 -1
18 10 -4 11 -1 14 10 10 11 -5 14 -1 10 18 -5 29 -22 32 -22 4z"/>
<path d="M10525 10789 c-4 -6 -5 -12 -2 -15 2 -3 7 2 10 11 7 17 1 20 -8 4z"/>
<path d="M6620 10730 c0 -5 7 -10 15 -10 8 0 15 5 15 10 0 6 -7 10 -15 10 -8
0 -15 -4 -15 -10z"/>
<path d="M10420 10716 c0 -2 7 -9 15 -16 13 -11 14 -10 9 4 -5 14 -24 23 -24
12z"/>
<path d="M6680 10670 c0 -5 5 -10 10 -10 6 0 10 5 10 10 0 6 -4 10 -10 10 -5
0 -10 -4 -10 -10z"/>
<path d="M10240 10614 c0 -14 4 -23 10 -19 6 3 10 15 10 26 0 10 -4 19 -10 19
-5 0 -10 -12 -10 -26z"/>
<path d="M10365 10629 c-4 -6 -5 -12 -2 -15 2 -3 7 2 10 11 7 17 1 20 -8 4z"/>
<path d="M6697 10613 c-12 -12 -7 -22 8 -17 8 4 15 10 15 15 0 11 -14 12 -23
2z"/>
<path d="M10120 10590 c0 -5 5 -10 10 -10 6 0 10 5 10 10 0 6 -4 10 -10 10 -5
0 -10 -4 -10 -10z"/>
<path d="M10188 10513 c7 -3 16 -2 19 1 4 3 -2 6 -13 5 -11 0 -14 -3 -6 -6z"/>
<path d="M10176 10479 c3 -5 12 -9 21 -9 19 0 9 13 -12 16 -8 1 -13 -2 -9 -7z"/>
<path d="M9940 10429 c0 -5 5 -7 10 -4 6 3 10 8 10 11 0 2 -4 4 -10 4 -5 0
-10 -5 -10 -11z"/>
<path d="M10080 10399 c0 -5 5 -7 10 -4 6 3 10 8 10 11 0 2 -4 4 -10 4 -5 0
-10 -5 -10 -11z"/>
<path d="M7080 10389 c0 -5 5 -7 10 -4 6 3 10 8 10 11 0 2 -4 4 -10 4 -5 0
-10 -5 -10 -11z"/>
<path d="M7165 10387 c-4 -10 -5 -21 -1 -24 10 -10 18 4 13 24 -4 17 -4 17
-12 0z"/>
<path d="M9972 10364 c-14 -16 -5 -18 17 -5 7 5 9 11 5 14 -5 3 -15 -1 -22 -9z"/>
<path d="M7140 10330 c0 -5 5 -10 10 -10 6 0 10 5 10 10 0 6 -4 10 -10 10 -5
0 -10 -4 -10 -10z"/>
<path d="M7090 10316 c0 -2 7 -7 16 -10 8 -3 12 -2 9 4 -6 10 -25 14 -25 6z"/>
<path d="M7250 10250 c-9 -6 -10 -10 -3 -10 6 0 15 5 18 10 8 12 4 12 -15 0z"/>
<path d="M9830 10240 c-9 -6 -10 -10 -3 -10 6 0 15 5 18 10 8 12 4 12 -15 0z"/>
<path d="M7420 10229 c0 -5 5 -7 10 -4 6 3 10 8 10 11 0 2 -4 4 -10 4 -5 0
-10 -5 -10 -11z"/>
<path d="M9750 10230 c-13 -8 -12 -10 3 -10 9 0 17 5 17 10 0 12 -1 12 -20 0z"/>
<path d="M7350 10190 c0 -5 -7 -7 -15 -4 -8 4 -15 1 -15 -5 0 -14 27 -14 35 0
4 6 14 8 22 5 8 -3 11 -1 8 4 -8 13 -35 13 -35 0z"/>
<path d="M9650 10196 c0 -2 9 -6 20 -9 11 -3 20 -1 20 4 0 5 -9 9 -20 9 -11 0
-20 -2 -20 -4z"/>
<path d="M7476 10164 c-9 -24 -7 -27 9 -10 17 17 19 26 6 26 -5 0 -12 -7 -15
-16z"/>
<path d="M7378 10153 c7 -3 16 -2 19 1 4 3 -2 6 -13 5 -11 0 -14 -3 -6 -6z"/>
<path d="M7458 10113 c7 -3 16 -2 19 1 4 3 -2 6 -13 5 -11 0 -14 -3 -6 -6z"/>
<path d="M9445 10110 c-8 -13 5 -13 25 0 13 8 13 10 -2 10 -9 0 -20 -4 -23
-10z"/>
<path d="M7500 10101 c0 -6 9 -9 19 -8 11 0 17 5 15 9 -7 11 -34 10 -34 -1z"/>
<path d="M9470 10080 c-9 -6 -10 -10 -3 -10 6 0 15 5 18 10 8 12 4 12 -15 0z"/>
<path d="M9288 10053 c7 -3 16 -2 19 1 4 3 -2 6 -13 5 -11 0 -14 -3 -6 -6z"/>
<path d="M7806 10028 c3 -5 10 -6 15 -3 13 9 11 12 -6 12 -8 0 -12 -4 -9 -9z"/>
<path d="M9220 10036 c0 -2 7 -7 16 -10 8 -3 12 -2 9 4 -6 10 -25 14 -25 6z"/>
<path d="M9336 10031 c-4 -5 3 -7 14 -4 23 6 26 13 6 13 -8 0 -17 -4 -20 -9z"/>
<path d="M9280 10020 c-24 -8 -23 -8 8 -9 20 -1 31 3 27 9 -3 6 -7 10 -8 9 -1
-1 -13 -5 -27 -9z"/>
<path d="M7740 10011 c0 -5 9 -7 20 -4 11 3 20 7 20 9 0 2 -9 4 -20 4 -11 0
-20 -4 -20 -9z"/>
<path d="M7798 9993 c6 -2 18 -2 25 0 6 3 1 5 -13 5 -14 0 -19 -2 -12 -5z"/>
<path d="M9218 9993 c7 -3 16 -2 19 1 4 3 -2 6 -13 5 -11 0 -14 -3 -6 -6z"/>
<path d="M8338 9953 c7 -3 16 -2 19 1 4 3 -2 6 -13 5 -11 0 -14 -3 -6 -6z"/>
<path d="M8115 9940 c-4 -6 3 -10 14 -10 25 0 27 6 6 13 -8 4 -17 2 -20 -3z"/>
<path d="M8883 9937 c-3 -7 -3 -9 1 -5 5 4 19 3 32 -2 15 -6 24 -6 24 0 0 5 8
7 18 3 9 -3 14 -3 11 1 -12 13 -79 15 -86 3z"/>
<path d="M8400 9930 c0 -11 48 -25 57 -16 4 3 -3 6 -15 6 -12 0 -22 5 -22 10
0 6 -4 10 -10 10 -5 0 -10 -4 -10 -10z"/>
<path d="M8640 9925 c0 -8 7 -15 15 -15 9 0 12 6 9 15 -4 8 -10 15 -15 15 -5
0 -9 -7 -9 -15z"/>
<path d="M8326 9922 c-3 -5 1 -9 9 -9 8 0 15 4 15 9 0 4 -4 8 -9 8 -6 0 -12
-4 -15 -8z"/>
<path d="M8690 9926 c0 -2 7 -7 16 -10 8 -3 12 -2 9 4 -6 10 -25 14 -25 6z"/>
<path d="M8243 9913 c9 -2 25 -2 35 0 9 3 1 5 -18 5 -19 0 -27 -2 -17 -5z"/>
<path d="M8748 9913 c7 -3 16 -2 19 1 4 3 -2 6 -13 5 -11 0 -14 -3 -6 -6z"/>
<path d="M8788 9913 c7 -3 16 -2 19 1 4 3 -2 6 -13 5 -11 0 -14 -3 -6 -6z"/>
<path d="M14891 15661 c42 -9 77 -36 56 -44 -9 -4 -8 -8 3 -17 11 -9 12 -13 3
-17 -10 -4 -13 -98 -13 -423 0 -325 3 -420 13 -424 10 -5 10 -7 0 -12 -7 -3
-13 -12 -13 -20 0 -10 -13 -14 -42 -16 -40 -1 -40 -1 -8 -5 375 -38 562 -321
459 -694 -57 -206 -194 -425 -406 -650 -54 -57 -78 -86 -53 -64 l45 40 3 -35
c2 -19 9 -39 15 -43 9 -6 9 -10 -1 -14 -10 -4 -12 -136 -12 -631 l1 -627 -23
-21 c-13 -11 -32 -31 -43 -45 -29 -35 -5 -14 511 469 254 237 514 488 579 559
312 341 483 644 556 993 30 140 33 456 7 595 -101 534 -478 912 -1068 1074
-105 28 -278 58 -385 65 -204 14 -221 15 -184 7z"/>
<path d="M23928 15659 c23 -6 42 -14 42 -20 0 -5 8 -9 18 -9 11 0 13 -3 5 -8
-9 -6 -13 -122 -15 -464 -3 -450 -3 -457 17 -461 11 -2 -5 -5 -35 -6 l-55 -3
65 -14 c149 -32 223 -67 299 -145 151 -153 171 -419 50 -684 -73 -163 -187
-326 -341 -491 -51 -55 -77 -85 -58 -69 19 17 37 33 40 37 3 3 14 0 24 -8 14
-10 16 -14 5 -14 -12 0 -14 -86 -11 -626 2 -409 0 -630 -7 -638 -6 -7 -6 -17
-1 -26 12 -19 -4 -47 -49 -90 -21 -19 -28 -28 -17 -19 64 49 960 896 1053 995
335 357 508 657 584 1017 26 120 37 409 20 528 -62 429 -286 763 -656 976
-227 130 -529 219 -815 238 -47 3 -112 7 -145 10 -58 3 -58 3 -17 -6z"/>
<path d="M28024 15542 c-121 -159 -270 -361 -250 -340 13 15 29 29 35 30 9 3
13 -689 11 -1707 0 -25 0 -25 -35 -11 -19 8 -35 14 -35 12 0 -2 180 -106 400
-232 220 -126 400 -231 399 -234 0 -3 -274 -162 -610 -354 -335 -192 -611
-352 -614 -356 -4 -6 233 -380 255 -404 6 -5 16 -4 25 4 14 12 18 11 26 -1 5
-8 9 -9 9 -3 0 6 7 11 15 11 8 0 15 -4 15 -8 0 -4 10 -5 23 -2 12 2 36 6 53 7
17 2 35 6 40 9 23 14 34 -12 35 -86 1 -62 4 -77 17 -77 32 0 1 -12 -50 -20
-40 -6 -18 -8 95 -9 l147 -1 0 -480 0 -480 575 0 575 0 0 480 0 480 225 0 225
0 0 450 0 450 -225 0 -225 0 0 1450 0 1450 -567 -1 -568 0 -21 -27z m-187
-294 c-3 -8 -6 -5 -6 6 -1 11 2 17 5 13 3 -3 4 -12 1 -19z"/>
<path d="M18100 15530 c-11 -7 -5 -8 20 -4 43 8 51 14 19 14 -13 0 -31 -5 -39
-10z"/>
<path d="M17176 14647 c-280 -308 -449 -660 -513 -1070 -21 -140 -21 -428 2
-567 130 -810 709 -1448 1493 -1645 166 -42 292 -56 477 -56 194 0 335 17 500
62 106 28 270 86 212 74 -30 -6 -61 10 -51 26 3 5 1 9 -4 9 -6 0 -23 21 -38
48 -26 43 -29 45 -32 22 -2 -13 1 -26 7 -28 6 -2 11 -12 11 -23 0 -13 6 -19
16 -17 10 2 19 -3 21 -9 3 -8 -4 -13 -19 -13 -16 1 -31 13 -51 46 -15 25 -25
50 -21 55 3 5 2 8 -3 7 -4 -2 -10 2 -12 7 -2 6 -11 15 -20 22 -14 11 -13 12 7
13 13 0 22 -6 22 -15 0 -8 9 -15 20 -15 19 0 19 1 5 24 -17 26 -10 38 33 51
13 4 21 9 19 11 -3 3 -22 -2 -43 -11 -130 -54 -377 -95 -574 -95 -607 0 -1142
293 -1473 806 -256 397 -336 918 -212 1380 74 273 193 493 394 724 36 41 49
60 28 41 -20 -19 -39 -32 -42 -30 -4 5 -70 104 -107 161 -17 27 -17 28 8 58
52 62 13 27 -60 -53z m70 -60 c7 -9 14 -24 14 -32 0 -8 5 -15 10 -15 6 0 10
-9 10 -20 0 -11 5 -20 10 -20 6 0 10 -10 10 -22 0 -18 2 -20 10 -8 5 8 12 11
16 7 8 -7 -14 -37 -27 -37 -11 0 -43 70 -40 88 1 6 -5 12 -13 12 -8 0 -19 14
-25 31 -7 20 -16 29 -24 26 -9 -3 -13 2 -11 16 1 12 3 27 3 32 1 6 11 -1 22
-15 11 -14 27 -33 35 -43z m2040 -3150 c4 -4 -2 -7 -14 -7 -12 0 -22 4 -22 9
0 10 26 9 36 -2z"/>
<path d="M21617 14088 c6 -64 -2 -112 -18 -103 -5 4 -39 -10 -75 -30 -36 -20
-67 -35 -69 -33 -1 1 -6 39 -11 83 -7 59 -9 -6 -9 -250 0 -353 -8 -434 -61
-687 -148 -702 -528 -1285 -1079 -1655 -313 -210 -694 -357 -1087 -420 -142
-22 -566 -25 -698 -5 -533 83 -1002 334 -1352 724 -78 87 -110 113 -43 35 19
-22 35 -47 35 -55 0 -9 -3 -12 -6 -9 -4 3 -15 2 -25 -3 -15 -8 -25 -2 -58 37
-80 96 -91 106 -41 38 272 -371 681 -670 1110 -815 131 -43 312 -87 449 -107
142 -20 489 -23 636 -4 1155 146 2024 916 2320 2056 84 322 100 462 99 855 0
213 -4 339 -12 365 -11 39 -11 39 -5 -17z"/>
<path d="M16611 12803 c-2 -24 31 -151 65 -257 249 -763 897 -1296 1742 -1432
93 -15 512 -32 502 -21 -3 3 -51 7 -107 8 -109 2 -153 7 -153 18 0 4 14 5 31
3 26 -4 30 -2 27 14 -2 14 -11 19 -36 18 -17 -1 -32 1 -32 6 0 8 74 20 126 20
18 0 35 3 37 8 3 4 -81 7 -187 8 -341 1 -633 68 -932 215 -215 106 -387 231
-554 405 -242 251 -385 508 -495 884 -19 63 -34 110 -34 103z"/>
<path d="M17020 11866 c0 -2 8 -10 18 -17 15 -13 16 -12 3 4 -13 16 -21 21
-21 13z"/>
<path d="M14914 11759 c61 -9 86 -19 48 -19 l-22 0 0 -450 0 -450 22 0 c38 0
13 -10 -48 -19 -36 -5 288 -9 829 -10 l887 -1 0 480 0 480 -887 -1 c-541 -1
-865 -5 -829 -10z"/>
<path d="M23939 11759 c53 -9 79 -19 50 -19 -12 0 -14 -66 -14 -434 0 -287 3
-432 10 -428 6 3 3 -3 -5 -13 -11 -14 -12 -19 -2 -22 26 -9 10 -19 -35 -22
-163 -8 47 -11 830 -11 l887 0 0 480 0 480 -887 -1 c-565 -1 -868 -5 -834 -10z"/>
<path d="M13070 9165 l0 -945 7622 2 7621 3 240 470 240 470 -239 472 -239
473 -7622 0 -7623 0 0 -945z m1513 621 c67 -20 102 -50 131 -109 22 -45 27
-71 33 -180 l6 -127 -96 0 -97 0 0 99 c0 82 -3 103 -19 122 -23 29 -88 31
-108 3 -10 -14 -13 -107 -13 -430 0 -461 -3 -444 70 -444 59 0 70 23 70 142
l0 98 97 0 96 0 -6 -117 c-8 -142 -18 -182 -60 -230 -44 -50 -104 -74 -185
-76 -93 -2 -157 18 -203 64 -67 67 -69 86 -69 564 0 459 3 492 56 555 61 72
186 100 297 66z m1453 -1 c55 -16 103 -55 130 -106 18 -31 19 -68 22 -492 2
-305 -1 -470 -8 -497 -25 -94 -114 -152 -234 -153 -97 0 -149 16 -196 63 -70
70 -71 86 -68 592 3 482 2 471 62 536 59 66 183 90 292 57z m2133 -1 c68 -20
123 -74 142 -140 11 -39 14 -137 14 -490 l0 -440 -30 -60 c-26 -50 -38 -63
-87 -88 -48 -24 -69 -29 -136 -29 -66 -1 -88 4 -134 26 -29 14 -64 40 -76 56
-47 64 -52 116 -52 542 0 224 4 420 10 450 28 151 177 224 349 173z m1607 -12
c92 -47 124 -124 124 -294 l0 -108 -95 0 -95 0 0 103 c0 56 -4 107 -8 114 -11
17 -59 33 -79 26 -10 -3 -26 -13 -35 -21 -17 -14 -18 -47 -18 -421 0 -457 -1
-451 67 -451 69 0 73 12 73 197 l0 163 -35 0 -35 0 0 90 0 90 131 0 130 0 -3
-277 c-3 -267 -4 -280 -26 -325 -41 -84 -117 -122 -238 -121 -86 1 -146 25
-190 75 -59 67 -59 71 -59 558 l0 445 28 57 c46 94 118 130 247 125 52 -3 88
-10 116 -25z m5719 1 c94 -49 118 -101 123 -270 l4 -133 -96 0 -96 0 0 103 c0
121 -8 138 -64 140 -58 2 -76 -26 -76 -119 0 -114 23 -152 163 -263 138 -111
167 -175 167 -366 0 -151 -16 -211 -70 -265 -47 -47 -99 -63 -196 -63 -86 1
-146 24 -191 76 -43 49 -53 91 -53 230 l0 117 90 0 90 0 0 -98 c0 -119 11
-142 70 -142 62 0 70 16 70 136 0 137 -11 159 -137 264 -164 138 -183 176
-183 374 0 122 2 136 26 184 44 88 118 124 244 119 51 -3 88 -10 115 -24z
m1734 11 c68 -20 123 -74 142 -140 11 -39 14 -137 14 -490 l0 -440 -30 -60
c-26 -50 -38 -63 -87 -88 -48 -24 -69 -29 -136 -29 -125 -1 -204 46 -242 143
-18 45 -27 837 -11 927 29 154 176 229 350 177z m-13229 -12 c0 -4 27 -177 59
-384 33 -207 71 -464 86 -570 14 -106 28 -210 31 -230 l6 -38 -95 0 -94 0 -7
53 c-4 28 -11 87 -17 130 l-11 77 -83 0 c-97 0 -88 11 -105 -130 -17 -141 -7
-130 -111 -130 -81 0 -89 2 -89 19 0 50 153 1089 175 1189 5 21 9 22 130 22
69 0 125 -4 125 -8z m1310 -82 l0 -90 -80 0 -80 0 0 -525 0 -525 -95 0 -95 0
0 525 0 525 -80 0 -80 0 0 90 0 90 255 0 255 0 0 -90z m260 -525 l0 -615 -95
0 -95 0 0 615 0 615 95 0 95 0 0 -615z m991 299 l74 -317 3 317 2 316 90 0 90
0 0 -615 0 -615 -94 0 -93 0 -25 108 c-14 59 -48 201 -74 316 l-49 210 -3
-317 -2 -317 -90 0 -90 0 0 615 0 615 93 0 94 0 74 -316z m1189 226 l0 -90
-140 0 -140 0 0 -170 0 -170 120 0 120 0 0 -90 0 -90 -120 0 -120 0 0 -265 0
-265 -95 0 -95 0 0 615 0 615 235 0 235 0 0 -90z m1036 75 c53 -15 90 -48 120
-105 17 -31 19 -59 19 -226 l0 -191 -30 -43 c-16 -23 -44 -49 -62 -58 -18 -9
-33 -19 -33 -23 0 -4 43 -131 95 -281 52 -150 95 -276 95 -280 0 -4 -45 -8
-100 -8 -55 0 -100 2 -100 5 0 16 -154 522 -161 530 -5 5 -9 -102 -9 -263 l0
-272 -95 0 -95 0 0 615 0 615 153 0 c106 0 169 -5 203 -15z m1569 4 c52 -15
119 -82 134 -134 18 -62 25 -251 13 -330 -15 -94 -47 -138 -130 -182 -2 -1 39
-125 92 -276 53 -152 96 -280 96 -286 0 -7 -34 -11 -98 -11 l-98 0 -79 270
c-44 149 -83 270 -87 270 -5 0 -8 -121 -8 -270 l0 -270 -90 0 -90 0 0 615 0
615 153 0 c83 0 170 -5 192 -11z m735 -79 l0 -90 -140 0 -140 0 0 -170 0 -170
120 0 120 0 0 -90 0 -90 -120 0 -120 0 0 -170 0 -170 140 0 140 0 0 -95 0 -95
-235 0 -235 0 0 615 0 615 235 0 235 0 0 -90z m550 0 l0 -90 -140 0 -140 0 0
-170 0 -170 120 0 120 0 0 -90 0 -90 -120 0 -120 0 0 -170 0 -170 140 0 140 0
0 -95 0 -95 -230 0 -230 0 0 615 0 615 230 0 230 0 0 -90z m352 -232 l76 -323
1 323 1 322 90 0 90 0 0 -615 0 -615 -94 0 -94 0 -36 153 c-20 83 -54 226 -75
317 l-40 165 0 -317 -1 -318 -90 0 -90 0 0 615 0 615 93 0 93 0 76 -322z
m1188 232 l0 -90 -85 0 -85 0 0 -525 0 -525 -90 0 -90 0 0 525 0 525 -85 0
-85 0 0 90 0 90 260 0 260 0 0 -90z m415 79 c54 -15 119 -82 136 -139 9 -29
14 -102 14 -200 0 -137 -2 -160 -21 -201 -21 -44 -78 -99 -103 -99 -7 0 -11
-6 -9 -13 6 -27 192 -556 194 -554 1 1 14 92 28 202 24 181 140 938 152 993 4
21 8 22 129 22 69 0 125 -3 125 -6 0 -3 27 -178 60 -388 46 -292 120 -806 120
-833 0 -2 -42 -3 -94 -3 l-93 0 -7 53 c-4 28 -11 87 -17 130 l-11 77 -83 0
c-97 0 -88 11 -105 -130 -6 -52 -14 -103 -16 -112 -5 -16 -23 -18 -197 -18
l-192 0 -80 270 c-43 149 -83 270 -87 270 -4 0 -8 -121 -8 -270 l0 -270 -90 0
-90 0 0 615 0 615 153 0 c83 0 170 -5 192 -11z m1105 -126 c18 -76 54 -228 80
-338 l49 -200 0 338 1 337 85 0 85 0 0 -615 0 -615 -93 0 -93 0 -76 323 -76
322 -1 -322 -1 -323 -90 0 -90 0 0 615 0 615 94 0 94 0 32 -137z m1220 -478
l0 -615 -95 0 -95 0 0 615 0 615 95 0 95 0 0 -615z m580 525 l0 -90 -80 0 -80
0 0 -525 0 -525 -95 0 -95 0 0 525 0 525 -80 0 -80 0 0 90 0 90 255 0 255 0 0
-90z m260 -525 l0 -615 -90 0 -90 0 0 615 0 615 90 0 90 0 0 -615z m960 438
c23 -98 59 -248 80 -333 l38 -155 1 333 1 332 85 0 85 0 0 -615 0 -615 -93 0
-92 0 -75 322 -75 322 -3 -322 -2 -322 -90 0 -90 0 0 615 0 615 94 0 94 0 42
-177z"/>
<path d="M15915 9613 c-44 -10 -45 -15 -45 -449 0 -461 -3 -444 70 -444 71 0
70 -8 70 446 0 368 -1 403 -17 422 -20 23 -48 32 -78 25z"/>
<path d="M18040 9609 c-13 -6 -28 -15 -32 -22 -4 -7 -8 -197 -8 -423 0 -385 1
-412 18 -427 10 -10 35 -17 55 -17 68 0 67 -6 67 452 0 356 -2 409 -16 422 -8
9 -19 16 -24 16 -5 0 -14 2 -22 4 -7 3 -24 0 -38 -5z"/>
<path d="M27100 9609 c-13 -6 -28 -15 -32 -22 -4 -7 -8 -197 -8 -423 0 -385 1
-412 18 -427 10 -10 35 -17 55 -17 68 0 67 -6 67 452 0 356 -2 409 -16 422 -8
9 -19 16 -24 16 -5 0 -14 2 -22 4 -7 3 -24 0 -38 -5z"/>
<path d="M13871 9439 c0 -4 -12 -92 -26 -195 -14 -104 -27 -201 -30 -216 -4
-28 -4 -28 55 -28 40 0 60 4 60 12 0 37 -56 443 -59 427z"/>
<path d="M18620 9431 l0 -171 44 0 c37 0 48 5 66 27 20 26 21 37 18 150 -4
141 -9 152 -82 160 l-46 6 0 -172z"/>
<path d="M20190 9431 l0 -171 45 0 c77 0 85 16 85 168 0 149 -6 161 -85 169
l-45 6 0 -172z"/>
<path d="M23430 9430 l0 -170 45 0 c77 0 85 16 85 168 0 70 -4 132 -8 139 -10
16 -57 33 -93 33 l-29 0 0 -170z"/>
<path d="M24111 9439 c0 -4 -12 -92 -26 -195 -14 -104 -27 -201 -30 -216 -4
-28 -4 -28 55 -28 43 0 60 4 60 13 0 38 -56 442 -59 426z"/>
<path d="M28420 10106 c0 -3 106 -212 235 -466 129 -253 235 -466 235 -472 0
-6 -106 -220 -235 -474 -129 -255 -235 -466 -235 -469 0 -3 87 -5 193 -5 l193
0 241 473 241 472 -238 470 -239 470 -195 3 c-108 1 -196 0 -196 -2z"/>
<path d="M29009 9918 c54 -106 162 -318 240 -471 l142 -278 -97 -192 c-53
-106 -162 -319 -241 -474 l-145 -283 124 0 123 0 240 474 241 473 -241 472
-240 471 -122 0 -123 0 99 -192z"/>
<path d="M10185 9290 c-183 -27 -314 -117 -380 -262 -72 -157 -71 -391 1 -545
79 -167 278 -274 484 -260 142 10 250 57 338 150 89 94 122 183 129 347 8 189
-30 317 -127 423 -99 109 -288 171 -445 147z m181 -206 c111 -46 164 -153 164
-330 0 -156 -46 -257 -142 -310 -46 -25 -63 -29 -133 -29 -90 0 -126 14 -188
73 -52 51 -78 125 -84 242 -11 200 60 326 205 366 52 15 127 9 178 -12z"/>
<path d="M7690 9185 l0 -95 105 0 105 0 0 95 0 95 -105 0 -105 0 0 -95z"/>
<path d="M10920 9185 l0 -95 105 0 105 0 0 95 0 95 -105 0 -105 0 0 -95z"/>
<path d="M5500 8760 l0 -510 115 0 115 0 0 510 0 510 -115 0 -115 0 0 -510z"/>
<path d="M7300 9093 l0 -177 -37 36 c-53 52 -104 71 -188 71 -93 -1 -159 -29
-220 -94 -78 -84 -112 -197 -102 -337 16 -218 142 -362 316 -362 84 0 151 22
196 65 l35 32 0 -38 0 -39 105 0 105 0 0 510 0 510 -105 0 -105 0 0 -177z
m-76 -272 c79 -44 107 -244 48 -344 -27 -47 -65 -70 -124 -74 -72 -6 -115 19
-147 83 -49 98 -35 257 26 316 48 47 134 55 197 19z"/>
<path d="M11320 8760 l0 -510 105 0 105 0 0 510 0 510 -105 0 -105 0 0 -510z"/>
<path d="M6283 9020 c-55 -12 -90 -31 -135 -75 l-38 -37 0 51 0 51 -100 0
-100 0 0 -380 0 -380 105 0 105 0 0 238 c0 227 1 240 23 282 14 29 34 51 57
62 72 36 169 13 189 -44 7 -19 11 -130 11 -284 l0 -254 111 0 111 0 -4 293
c-4 322 -7 339 -70 404 -57 59 -174 91 -265 73z"/>
<path d="M8302 9020 c-136 -25 -215 -101 -237 -228 l-7 -43 102 3 102 3 12 35
c19 59 105 87 185 59 17 -6 36 -19 41 -29 15 -27 12 -66 -5 -80 -8 -6 -72 -21
-142 -31 -70 -11 -147 -27 -170 -36 -52 -19 -110 -74 -130 -122 -18 -44 -20
-133 -4 -183 15 -46 87 -113 137 -127 99 -27 217 -5 291 55 l41 34 9 -38 9
-37 117 -3 c127 -3 136 2 95 46 -22 23 -23 31 -28 295 -6 302 -7 308 -76 365
-67 56 -220 83 -342 62z m191 -563 c-10 -18 -38 -42 -63 -54 -95 -49 -180 -18
-180 65 0 53 29 78 116 98 38 9 85 21 104 28 l35 12 3 -59 c2 -43 -2 -67 -15
-90z"/>
<path d="M9270 9021 c-55 -11 -107 -40 -140 -77 l-30 -35 0 51 0 50 -105 0
-105 0 0 -380 0 -380 110 0 110 0 0 243 c0 265 4 288 62 330 34 25 123 33 158
15 54 -29 60 -60 60 -335 l0 -253 106 0 105 0 -3 303 c-3 291 -4 304 -25 344
-50 92 -186 148 -303 124z"/>
<path d="M7690 8630 l0 -380 105 0 105 0 0 380 0 380 -105 0 -105 0 0 -380z"/>
<path d="M10920 8630 l0 -380 105 0 105 0 0 380 0 380 -105 0 -105 0 0 -380z"/>
</g>
</svg>
